HIERARCHY
ROOT Hips
{
  OFFSET -31.5692 30.0904 122.763
  CHANNELS 6 Xposition Yposition Zposition Zrotation Xrotation Yrotation
  JOINT LeftUpLeg
  {
    OFFSET 8.64259 1.95398 -2.38835
    CHANNELS 3 Zrotation Xrotation Yrotation
    JOINT LeftLeg
    {
      OFFSET 43.7702 0 0
      CHANNELS 3 Zrotation Xrotation Yrotation
      JOINT LeftFoot
      {
        OFFSET 40.6238 0 0
        CHANNELS 3 Zrotation Xrotation Yrotation
        JOINT LeftToeBase
        {
          OFFSET 12.7242 0 0
          CHANNELS 3 Zrotation Xrotation Yrotation
          End Site
          {
            OFFSET 0 0 0
          }
        }
      }
    }
  }
  JOINT RightUpLeg
  {
    OFFSET -8.2249 1.95398 -2.59336
    CHANNELS 3 Zrotation Xrotation Yrotation
    JOINT RightLeg
    {
      OFFSET 43.5653 0 0
      CHANNELS 3 Zrotation Xrotation Yrotation
      JOINT RightFoot
      {
        OFFSET 40.6238 0 0
        CHANNELS 3 Zrotation Xrotation Yrotation
        JOINT RightToeBase
        {
          OFFSET 12.7242 0 0
          CHANNELS 3 Zrotation Xrotation Yrotation
          End Site
          {
            OFFSET 0 0 0
          }
        }
      }
    }
  }
  JOINT Spine
  {
    OFFSET 0.165834 0.87714 6.61349
    CHANNELS 3 Zrotation Xrotation Yrotation
    JOINT Spine1
    {
      OFFSET 7.38963 1.71661e-005 0
      CHANNELS 3 Zrotation Xrotation Yrotation
      JOINT Spine2
      {
        OFFSET 11.9445 1.14441e-005 0
        CHANNELS 3 Zrotation Xrotation Yrotation
        JOINT Spine3
        {
          OFFSET 14.7254 4.19617e-005 0
          CHANNELS 3 Zrotation Xrotation Yrotation
          JOINT Spine4
          {
            OFFSET 10.9679 0 0
            CHANNELS 3 Zrotation Xrotation Yrotation
            JOINT RightShoulder
            {
              OFFSET 2.46616 -1.6653 3.69651
              CHANNELS 3 Zrotation Xrotation Yrotation
              JOINT RightArm
              {
                OFFSET 13.0012 0 0
                CHANNELS 3 Zrotation Xrotation Yrotation
                JOINT RightForeArm
                {
                  OFFSET 28.7848 1.62311e-005 0
                  CHANNELS 3 Zrotation Xrotation Yrotation
                  JOINT RightHand
                  {
                    OFFSET 26.5688 1.62095e-005 0
                    CHANNELS 3 Zrotation Xrotation Yrotation
                    End Site
                    {
                      OFFSET 0 0 0
                    }
                  }
                }
              }
            }
            JOINT LeftShoulder
            {
              OFFSET 2.38034 -1.29275 -3.7523
              CHANNELS 3 Zrotation Xrotation Yrotation
              JOINT LeftArm
              {
                OFFSET 16.3182 6.07031e-005 0
                CHANNELS 3 Zrotation Xrotation Yrotation
                JOINT LeftForeArm
                {
                  OFFSET 27.0901 0 0
                  CHANNELS 3 Zrotation Xrotation Yrotation
                  JOINT LeftHand
                  {
                    OFFSET 24.5451 1.51738e-005 0
                    CHANNELS 3 Zrotation Xrotation Yrotation
                    End Site
                    {
                      OFFSET 0 0 0
                    }
                  }
                }
              }
            }
            JOINT Neck
            {
              OFFSET 5.0226 -0.0266342 0
              CHANNELS 3 Zrotation Xrotation Yrotation
              JOINT Head
              {
                OFFSET 6.69364 2.86102e-005 0
                CHANNELS 3 Zrotation Xrotation Yrotation
                End Site
                {
                  OFFSET 0 0 0
                }
              }
            }
          }
        }
      }
    }
  }
}
MOTION
Frames:	9
Frame Time:	0.0416667
41.5067 95.9452 -168.753 -27.1607 -87.5251 -28.438 -178.554 33.6546 93.706 -30.427 16.251 1.27639 64.9504 3.03962 -1.56518 21.9665 -4.90453 3.92648 174.601 -13.5981 93.2595 -51.9204 -22.4957 -4.90638 65.2206 -2.66081 -2.12674 22.4451 0.825515 8.15614 1.39269 7.58212 -89.5675 11.7074 2.97306 0.550998 0.0398353 2.99444 0.419494 -22.5177 2.66995 1.41963 -2.50505 2.66995 1.41963 91.2329 -24.3685 -106.425 35.7115 -10.0912 -1.51233 -31.193 -11.8526 -80.924 -31.3157 5.09869 -31.2895 -87.3857 -44.7687 81.7035 -21.2459 29.17 26.436 49.9397 14.4748 -59.8429 29.3498 -15.508 -49.4145 25.1722 -9.49618 -11.3617 -14.7012 -5.50125 4.48972 
42.6538 94.7353 -156.888 -82.2896 -86.725 -85.2814 -176.68 30.542 91.4438 -42.7204 11.4899 1.18875 68.4671 5.03972 0.903584 27.528 -0.0393351 -1.61752 171.179 -2.05755 88.6964 -69.8709 -9.43366 -3.68382 69.5103 -4.64237 -2.82835 21.7077 0.533025 10.3839 0.760843 7.58053 -89.4628 11.7061 1.76543 0.88568 0.0360668 1.80269 0.80709 -22.5034 1.41764 1.37534 -2.49077 1.41764 1.37534 91.5743 -27.8684 -104.369 37.2291 -11.7221 7.26681 -35.6109 -25.2336 -72.656 -31.587 3.24828 -26.5129 -88.0852 -50.0117 81.5981 -19.444 23.385 11.7004 43.7476 18.5086 -57.1203 28.2056 -15.0523 -49.9694 20.5553 -5.85018 -14.5677 -10.7838 -1.44935 7.02351 
42.6019 94.3765 -146.215 -114.496 -84.4159 -121.345 -173.13 20.3863 88.3589 -44.6204 10.421 -0.595202 77.9238 11.3918 -0.097958 27.3054 -1.07048 0.992252 170.866 11.1897 85.3167 -81.7953 0.716938 -3.80526 75.2287 -8.51937 -6.05894 18.6223 2.75854 6.72044 -0.0399591 7.93541 -89.1458 10.9975 0.316234 1.66809 -0.67444 0.389329 1.65256 -23.2012 -0.199644 1.68602 -3.18858 -0.199638 1.68603 92.4092 -28.2385 -102.516 39.3726 -5.2131 17.9986 -40.2848 -32.9369 -70.841 -27.9709 2.18994 -26.2947 -88.613 -53.2926 81.4084 -11.907 18.6789 -10.7031 44.9028 21.9588 -59.7982 29.2384 -13.9757 -45.4788 22.5235 -1.87196 -12.2174 -10.819 1.98821 5.02348 
42.1756 95.0009 -135.086 -107.909 -80.7939 -113.044 -171.109 10.3429 91.6215 -42.3799 10.704 -0.767796 79.8374 13.3957 2.5228 34.66 2.43399 1.32254 173.345 23.382 91.7232 -80.9234 0.572753 -2.96225 76.1851 -9.54225 -5.80168 17.9166 2.76303 7.67051 -0.532509 7.82305 -89.3523 11.2331 -0.758222 1.36728 -0.438386 -0.697312 1.39931 -22.9714 -1.13408 1.07624 -2.95878 -1.13408 1.07623 93.8843 -26.3721 -100.012 40.0339 0.587038 27.7277 -30.9878 -30.5851 -62.4632 -25.2871 2.70053 -28.9663 -88.0691 -48.2441 81.3031 -9.86763 11.725 -23.1421 45.0498 22.9268 -60.9282 31.3357 -15.0909 -45.4868 19.7696 3.09092 -9.23632 -10.4862 5.65568 3.88233 
41.0528 97.5186 -122.896 -107.616 -76.1 -112.519 -169.358 -1.64918 90.5208 -35.1954 11.134 -1.59649 68.841 5.66234 2.95258 49.0539 8.89225 1.18066 175.304 26.9819 94.7947 -65.1594 0.916994 -1.40414 74.8718 -8.55366 -4.68925 17.7137 2.84899 7.65178 -0.997496 7.73816 -89.5199 11.4061 -1.76068 1.13326 -0.264258 -1.70911 1.20965 -22.8076 -2.01984 0.551569 -2.79501 -2.01984 0.551556 94.4299 -23.9831 -99.547 36.6983 2.17868 34.829 -31.7368 -31.1582 -62.2215 -24.6691 2.96029 -31.3286 -86.0619 -42.0482 83.353 -8.96556 6.13571 -22.6707 45.2592 18.6776 -64.2252 30.5262 -15.7683 -48.3851 17.0341 9.10613 -2.70391 -10.9904 9.53467 1.17181 
39.1907 99.6934 -110.185 -107.852 -72.4946 -112.781 -169.569 -7.8826 92.5569 -34.7075 16.236 -0.547951 54.677 -5.1601 -1.80104 46.9583 8.71565 -4.11645 177.14 23.241 97.1866 -40.274 -0.38481 0.699843 68.0511 -5.02887 -2.72531 20.3885 1.78816 7.61057 -1.17298 7.65086 -89.6103 11.5827 -2.15091 0.998478 -0.0869141 -2.10488 1.09221 -22.6359 -2.35151 0.305566 -2.62322 -2.35151 0.305572 93.783 -22.125 -101.621 35.8644 1.44957 41.8707 -27.7067 -30.542 -59.5917 -26.5986 3.71175 -32.2703 -84.8591 -35.6986 84.3042 -8.50597 2.80048 -19.35 48.962 17.2771 -65.492 28.3424 -16.0879 -52.5075 14.367 12.7338 1.31167 -11.6511 12.1227 -0.753544 
37.3583 99.6434 -97.9533 -107.677 -71.5303 -113.441 -170.384 -7.35905 92.769 -45.3179 28.0292 1.8523 54.9376 -4.60751 -1.79044 30.4481 0.620247 0.691568 178.976 17.6557 98.2263 -17.5261 -8.2951 0.922577 59.1067 -0.616614 0.373824 22.2087 1.0737 7.57576 -1.10427 7.4659 -89.5694 11.9528 -1.99265 1.0735 0.282874 -1.94349 1.16017 -22.2638 -2.22314 0.424752 -2.25113 -2.22313 0.424751 93.5859 -19.7225 -102.971 37.543 0.885905 48.1067 -24.5075 -28.2522 -59.0229 -25.2467 3.86103 -33.6487 -83.8712 -33.6567 85.758 -4.06796 5.47549 -18.9935 49.9795 16.3393 -67.4589 28.0462 -16.1221 -53.0912 9.22143 13.2128 2.43661 -8.66072 12.4757 -1.32512 
35.3404 97.9866 -86.5946 -114.624 -72.3387 -122.683 -170.377 -3.34232 93.9893 -57.2646 23.4134 2.86841 59.4857 -1.9445 -1.24517 36.2955 3.47555 -0.00786714 179.908 15.666 97.0963 -15.618 -17.4812 -0.52544 56.3038 1.45352 0.301169 20.7421 1.76515 7.13516 -1.00079 7.44411 -89.2237 11.9989 -1.62327 1.72732 0.327758 -1.54568 1.79706 -22.2108 -2.06734 1.15958 -2.19817 -2.06734 1.15959 93.388 -19.7216 -103.448 40.6341 -0.385933 51.118 -23.6475 -27.5116 -60.2745 -26.098 4.23554 -34.3779 -84.8104 -35.8164 84.4203 -2.92572 6.35162 -14.2181 50.6349 14.3328 -70.3499 30.1538 -16.1241 -49.7889 6.27265 11.6455 0.344639 -6.86072 11.4118 -1.04698 
33.3959 94.94 -75.5838 -126.6 -72.1653 -135.699 -170.263 3.13515 96.4422 -68.6388 12.0562 3.71463 64.9187 1.16745 1.96539 33.155 2.90145 -3.11049 177.844 17.8356 97.6114 -36.0474 -22.3326 -0.906634 65.3013 -3.071 -4.99658 6.21886 7.31883 8.44752 -0.762187 7.6564 -89.0532 11.5647 -1.07303 1.99833 -0.107442 -0.984057 2.04359 -22.6375 -1.62392 1.5836 -2.62488 -1.62393 1.58358 92.6132 -22.2217 -104.245 41.6446 -0.710429 49.7631 -27.688 -29.3096 -62.9887 -30.9519 5.03105 -33.7132 -85.8582 -40.7676 83.4739 -3.51897 7.34986 -6.16851 52.2502 11.7488 -71.5465 29.3463 -16.176 -51.1627 5.37403 9.55132 -0.00855834 -5.00286 9.42628 -2.38109 
